<svg xmlns="http://www.w3.org/2000/svg" xmlns:xlink="http://www.w3.org/1999/xlink" viewBox="0 0 529.60894 200.97207">
  <defs>
    <style>
      .cls-1, .cls-4 {
        fill: none;
      }

      .cls-2 {
        isolation: isolate;
      }

      .cls-3 {
        fill: url(#Degradado_sin_nombre_37);
      }

      .cls-4 {
        stroke: #fff;
        stroke-linecap: round;
        stroke-miterlimit: 10;
        stroke-width: 1.41732px;
      }

      .cls-5 {
        fill: #0095d6;
      }

      .cls-6 {
        fill: #231f20;
      }

      .cls-10, .cls-6 {
        opacity: 0.1;
        mix-blend-mode: multiply;
      }

      .cls-7 {
        fill: url(#Degradado_sin_nombre_19);
      }

      .cls-8 {
        fill: url(#Degradado_sin_nombre_26);
      }

      .cls-9 {
        fill: #37b34a;
      }

      .cls-10 {
        fill: url(#Degradado_sin_nombre_12);
      }

      .cls-11 {
        fill: url(#Degradado_sin_nombre_5);
      }

      .cls-12 {
        clip-path: url(#clip-path);
      }
    </style>
    <linearGradient id="Degradado_sin_nombre_37" data-name="Degradado sin nombre 37" x1="65.60321" y1="134.33362" x2="65.60321" y2="53.9793" gradientUnits="userSpaceOnUse">
      <stop offset="0" stop-color="#0f7caf"/>
      <stop offset="1" stop-color="#0093d3"/>
    </linearGradient>
    <linearGradient id="Degradado_sin_nombre_19" data-name="Degradado sin nombre 19" x1="37.28237" y1="90.84475" x2="200.74686" y2="90.84475" gradientUnits="userSpaceOnUse">
      <stop offset="0" stop-color="#009044"/>
      <stop offset="1" stop-color="#37b34a"/>
    </linearGradient>
    <linearGradient id="Degradado_sin_nombre_26" data-name="Degradado sin nombre 26" x1="51.49327" y1="94.7412" x2="186.09867" y2="94.7412" gradientUnits="userSpaceOnUse">
      <stop offset="0" stop-color="#b1cf9f"/>
      <stop offset="1" stop-color="#d5e9c3"/>
    </linearGradient>
    <linearGradient id="Degradado_sin_nombre_12" data-name="Degradado sin nombre 12" x1="37.28237" y1="131.40515" x2="147.99427" y2="131.40515" gradientUnits="userSpaceOnUse">
      <stop offset="0" stop-color="#231f20"/>
      <stop offset="1" stop-color="#231f20" stop-opacity="0"/>
    </linearGradient>
    <linearGradient id="Degradado_sin_nombre_5" data-name="Degradado sin nombre 5" x1="93.41877" y1="188.64439" x2="93.41877" y2="96.99712" gradientUnits="userSpaceOnUse">
      <stop offset="0" stop-color="#69addf"/>
      <stop offset="1" stop-color="#0095d6"/>
    </linearGradient>
    <clipPath id="clip-path">
      <path class="cls-1" d="M155.17047,158.4639l-64.841,29.4733a7.8877,7.8877,0,0,1-8.8412-1.6032l-54.4466-54.4467,75.2025-34.183a7.88737,7.88737,0,0,1,8.8411,1.6033L157.484,145.7062A7.88739,7.88739,0,0,1,155.17047,158.4639Z"/>
    </clipPath>
  </defs>
  <title>Artboard 2</title>
  <g class="cls-2">
    <g id="OBJECTS">
      <g>
        <path class="cls-3" d="M55.36787,58.6047l-29.4732,64.8411a7.88732,7.88732,0,0,0,1.6031,8.8411h0a6.98721,6.98721,0,0,0,7.8321,1.4202l66.5917-30.269A6.98718,6.98718,0,0,0,103.971,92.1365L68.12567,56.2912A7.88749,7.88749,0,0,0,55.36787,58.6047Z"/>
        <path class="cls-4" d="M100.43517,95.6721,64.58987,59.8268a2.80929,2.80929,0,0,0-2.02389-.8476,2.87794,2.87794,0,0,0-2.64651,1.6943l-29.4731,64.8408a2.90266,2.90266,0,0,0,.5869,3.2374l17.3755,17.9863"/>
        <path class="cls-5" d="M103.971,92.1365l-.85411-.8541a6.97909,6.97909,0,0,1-3.9453,7.7807l-66.5917,30.269a6.97739,6.97739,0,0,1-7.1721-.8548,7.85659,7.85659,0,0,0,2.0901,3.8096,6.987,6.987,0,0,0,7.832,1.4202l66.5917-30.269A6.98723,6.98723,0,0,0,103.971,92.1365Z"/>
        <g>
          <line class="cls-4" x1="70.23737" y1="73.4742" x2="40.76407" y2="138.3153"/>
          <line class="cls-4" x1="80.21517" y1="83.4519" x2="50.74187" y2="148.2931"/>
        </g>
        <g>
          <path class="cls-6" d="M103.971,92.1365,87.90657,76.0721a306.492,306.492,0,0,1-58.6242,55.7015l2.511,2.511a6.953,6.953,0,0,0,3.5365-.5775l66.5917-30.269A6.98723,6.98723,0,0,0,103.971,92.1365Z"/>
          <path class="cls-7" d="M200.74686,73.8029c-30.0415,41.5329-71.01289,75.6183-119.4315,98.7741l-44.033-44.033c41.5329-30.0415,75.6184-71.0128,98.7741-119.4315Q168.40173,41.4576,200.74686,73.8029Z"/>
          <path class="cls-8" d="M77.53077,160.4267q-13.01865-13.0188-26.0375-26.0375c4.6257-3.178,5.5354-8.6354,2.1615-12.0084a313.11779,313.11779,0,0,0,79.6717-93.4628c4.5238,4.5249,10.5917,4.2258,13.3723-.7975q18.55035,18.55035,37.1007,37.1008c-3.1782,4.6258-2.2297,11.9411,2.2992,16.469a313.11735,313.11735,0,0,1-93.4628,79.6716C89.25887,157.984,82.55387,157.646,77.53077,160.4267Z"/>
          <path class="cls-9" d="M133.23657,96.9833l2.5268,2.5268c1.2419-1.5074,1.4538-2.579.8714-3.1613C135.92907,95.6431,134.70867,96.0722,133.23657,96.9833Zm-10.9077-3.0842c.66.6604,1.7572.2301,3.216-.6345q-1.3155-1.31535-2.6308-2.6307C121.92047,92.085,121.69817,93.2683,122.32887,93.8991ZM145.146,77.166c-10.02581-10.0285-24.55871-9.295-33.35151.7873-8.7702,10.1047-9.5041,24.6378-.7873,33.3515,8.6906,8.6938,24.5996,9.3357,34.68181.5429C155.79367,103.0775,155.15177,87.1686,145.146,77.166Zm-2.38031,29.3466q-1.03154.95475-2.0722,1.9007l-2.4492-2.4492c-4.7347,4.0679-8.2858,5.2805-12.1706,5.5494q-.5508-3.32955-1.1592-6.7176c3.0594.3104,6.01051-.8332,8.8548-3.3068l-2.9331-2.9331c-4.248,2.9041-9.99619,6.5642-14.5396,2.0202-3.3749-3.3748-2.8003-8.6629,2.052-14.5078l-2.4493-2.4493q.9552-1.03125,1.9015-2.0714,1.21785,1.2177,2.4356,2.4356c4.544-4.6246,7.8733-5.5098,11.52461-5.7672q.57929,3.5721,1.09779,7.0846c-3.2081-.2758-5.6682.8699-8.1166,3.1883q1.58325,1.5834,3.1665,3.1665c4.1818-2.9702,9.6972-6.9845,14.6858-1.9953,3.80151,3.8012,2.3849,9.6535-2.2949,14.3863Q141.53272,105.2795,142.76567,106.5126Z"/>
        </g>
        <path class="cls-10" d="M110.33527,92.3622a7.31727,7.31727,0,0,0-8.7945-1.1722l-53.6565,29.3115q-5.21715,4.1388-10.6019,8.0425,22.01655,22.0164,44.033,44.033a322.44978,322.44978,0,0,0,66.6789-42.5559Z"/>
        <g>
          <path class="cls-11" d="M155.17047,158.4639l-64.841,29.4733a7.8877,7.8877,0,0,1-8.8412-1.6032l-54.4466-54.4467,75.2025-34.183a7.88737,7.88737,0,0,1,8.8411,1.6033L157.484,145.7062A7.88739,7.88739,0,0,1,155.17047,158.4639Z"/>
          <g class="cls-12">
            <path class="cls-4" d="M27.04167,137.556l77.2713-35.2998a2.88454,2.88454,0,0,1,3.23579.5864l46.4004,46.399a2.8885,2.8885,0,0,1-.8476,4.6709L76.708,188.6444"/>
          </g>
        </g>
        <g>
          <path class="cls-5" d="M239.66133,117.53516a10.04178,10.04178,0,0,1-.5,3.09961,38.15438,38.15438,0,0,0-6.7002-.5c-5.7002,0-11.80078,1.2998-17.10059,2-6.10059,14.20117-10.20117,27.002-10.40039,30.90234a248.73322,248.73322,0,0,1,33.70117-4.7002,14.13405,14.13405,0,0,1,2.60059,8,12.73239,12.73239,0,0,1-.2002,2.7002c-3.7002-.09961-7.2998-.2002-14.001-.2002-8.90039,0-14.80078.60059-26.10156,2.60059-3-1.2002-6.10059-4.30078-8.90039-8.80078,2.2998-4.7998,6.30078-14.30078,12.501-30.60156a8.86117,8.86117,0,0,1-5.90039-5c.7002-.7002,4.2002-1.7002,8.80078-2.80078,3.90039-10.30078,5.5-14.90039,7.10059-22.60156-4.60059-.19922-7.501-2.7998-7.501-6.5a12.92941,12.92941,0,0,1,.7998-3.7998,52.20218,52.20218,0,0,0,8.70117.5c16.7002,0,29.80176-2.2002,34.30176-2.2002,3.10059,0,5.60059,3.39941,6.80078,9.2002a84.47026,84.47026,0,0,0-8.501-.5,123.50054,123.50054,0,0,0-18.80078,1.7002c-1.60059,2.40039-3.7002,6.7998-10.501,22.001a91.71315,91.71315,0,0,1,12.80078-1.2998C237.06173,110.73438,239.66133,113.23438,239.66133,117.53516Z"/>
          <path class="cls-9" d="M254.69649,148.00879l3.24023-7.27344a27.926,27.926,0,0,0,16.63379,5.54492c7.84863,0,11.16113-2.80859,11.16113-6.55273,0-10.873-29.95508-3.74414-29.95508-22.46582,0-8.13672,6.48145-15.04883,20.30664-15.04883,6.04785,0,12.38477,1.584,16.77734,4.46387l-2.95215,7.27246a28.0134,28.0134,0,0,0-13.89746-3.96c-7.77637,0-10.94531,3.02441-10.94531,6.84082,0,10.72852,29.88281,3.74414,29.88281,22.25,0,8.06445-6.55273,14.97656-20.37793,14.97656C266.72188,154.05664,258.87325,151.6084,254.69649,148.00879Z"/>
          <path class="cls-9" d="M332.60372,141.67188H307.40157l-4.96875,11.665h-9.64844l22.68164-50.4043h9.2168l22.75391,50.4043h-9.792Zm-3.0957-7.34473L320.00313,112.293l-9.43359,22.03418Z"/>
          <path class="cls-9" d="M392.94161,102.93262l-21.96191,50.4043h-9.2168l-22.0332-50.4043H349.882l16.77734,38.88281,16.92188-38.88281Z"/>
          <path class="cls-9" d="M393.94454,102.93262h9.36133v50.4043h-9.36133Z"/>
          <path class="cls-9" d="M457.38008,102.93262v50.4043H449.675l-27.79395-34.13086v34.13086H412.592v-50.4043h7.70508L448.091,137.06348V102.93262Z"/>
          <path class="cls-9" d="M501.01,127.55859h8.85645v20.08984c-5.25586,4.248-12.60059,6.4082-19.72949,6.4082-15.625,0-27.14648-10.873-27.14648-25.92187,0-15.0498,11.52148-25.92188,27.291-25.92188,8.4248,0,15.48145,2.80762,20.2334,8.208l-5.9043,5.76074a18.71035,18.71035,0,0,0-13.89746-5.76074c-10.72852,0-18.28906,7.27246-18.28906,17.71387,0,10.22461,7.56055,17.71387,18.2168,17.71387A20.36069,20.36069,0,0,0,501.01,143.25586Z"/>
        </g>
      </g>
    </g>
  </g>
</svg>
